Coordinates
version=1
nRows=5
nColumns=42
inDegrees=yes

Units are S.I. units (second, meters, Newtons, ...)
If the header above contains a line with 'inDegrees', this indicates whether rotational values are in degrees (yes) or radians (no).

endheader
time	pelvis_tilt	pelvis_list	pelvis_rotation	pelvis_tx	pelvis_ty	pelvis_tz	hip_flexion_r	hip_adduction_r	hip_rotation_r	knee_angle_r	knee_adduction_r	knee_angle_r_beta	ankle_angle_r	subtalar_angle_r	mtp_angle_r	hip_flexion_l	hip_adduction_l	hip_rotation_l	knee_angle_l	knee_adduction_l	knee_angle_l_beta	ankle_angle_l	subtalar_angle_l	mtp_angle_l	lumbar_extension	lumbar_bending	lumbar_rotation	arm_flex_r	arm_add_r	arm_rot_r	elbow_flex_r	pro_sup_r	wrist_flex_r	wrist_dev_r	arm_flex_l	arm_add_l	arm_rot_l	elbow_flex_l	pro_sup_l	wrist_flex_l	wrist_dev_l
      2.16000000	      2.04653551	      1.35221959	      6.13595663	     -0.11848324	      0.87186291	      0.21476363	     32.58723014	     -3.45345997	    -31.26963849	     59.15987176	    -22.06021784	      1.03253455	      3.17568360	    -12.61765794	     -7.50038066	     10.36177587	      9.78434133	    -19.80318041	     26.64839127	    -16.41121071	      0.46510217	     28.88563625	     26.15798492	     -7.50038066	    -21.08523708	     -0.55792164	     -2.32825360	      5.20463282	    -14.62222377	     13.67866818	     35.90556800	     90.00000001	      0.00000000	      0.00000000	     13.79493789	    -19.26856805	     17.97709501	     45.13798500	     90.00000001	      0.00000000	      0.00000000
      2.17000000	      2.09317594	      1.45833024	      6.67214382	     -0.10698058	      0.87140856	      0.21382940	     33.23418558	     -3.75981006	    -31.34838602	     56.08164357	    -21.39176157	      0.97880933	      3.72519852	    -11.58862999	     -7.50036005	      9.22378756	      9.78403280	    -20.02825551	     26.21624104	    -16.48772388	      0.45755972	     29.66610798	     27.23680740	     -7.50036005	    -21.21366624	     -0.50637225	     -2.92608578	      4.50839098	    -14.31680967	     13.58378972	     35.57611652	     90.00000001	      0.00000000	      0.00000000	     14.81901202	    -19.84798164	     17.88197598	     46.40445460	     90.00000001	      0.00000000	      0.00000000
      2.18000000	      2.10541759	      1.55291751	      7.16900414	     -0.09543396	      0.87058634	      0.21306364	     33.84405407	     -4.05406596	    -31.83865969	     52.77432381	    -21.02091614	      0.92108571	      4.60325377	     -9.53602730	     -7.50033414	      8.24051127	      9.65947378	    -20.56652757	     25.95257139	    -16.59975140	      0.45295782	     30.54260472	     28.83737415	     -7.50033414	    -21.30354779	     -0.47056717	     -3.43803355	      3.77350883	    -13.98167742	     13.34148800	     35.29077350	     90.00000001	      0.00000000	      0.00000000	     15.90018968	    -20.37474566	     17.83453120	     47.51976115	     90.00000001	      0.00000000	      0.00000000
      2.19000000	      2.09382572	      1.68371050	      7.62204102	     -0.08396019	      0.86954295	      0.21234653	     34.41089723	     -4.41258279	    -32.52431622	     49.35236424	    -20.69130314	      0.86136125	      5.56610806	     -7.08976331	     -7.50030807	      7.29401114	      9.60828894	    -20.91235377	     25.76107166	    -16.68684015	      0.44961552	     31.39389821	     29.98015595	     -7.50030807	    -21.38920346	     -0.47882672	     -3.90885508	      3.08401782	    -13.64972788	     13.10255877	     34.96749958	     90.00000001	      0.00000000	      0.00000000	     16.98990331	    -20.85810411	     17.75936684	     48.59451934	     90.00000001	      0.00000000	      0.00000000
      2.20000000	      2.06427091	      1.84832910	      8.02815697	     -0.07254416	      0.86827105	      0.21169240	     34.94524709	     -4.82980272	    -33.52223805	     45.84913111	    -20.47485353	      0.80021830	      6.63927060	     -4.05490852	     -7.50028159	      6.38460227	      9.63068559	    -21.11164286	     25.62959940	    -16.78172769	      0.44732090	     32.23427162	     30.77912170	     -7.50028159	    -21.47499895	     -0.53498761	     -4.33838878	      2.44310943	    -13.30026531	     12.83252296	     34.60611257	     90.00000001	      0.00000000	      0.00000000	     18.08397555	    -21.30508807	     17.68455844	     49.60285237	     90.00000001	      0.00000000	      0.00000000
